<svg width="600" height="400" viewBox="0 0 600 400" fill="none" xmlns="http://www.w3.org/2000/svg">
<rect width="600" height="400" fill="#0C1610"/>
<path d="M174 82.75C109.251 82.75 56.75 136.612 56.75 202.984C56.75 256.113 90.3547 301.128 136.941 317.041C137.673 317.198 138.302 317.25 138.93 317.25C143.274 317.25 144.949 314.057 144.949 311.283C144.949 308.404 144.845 300.866 144.792 290.816C140.395 291.811 136.47 292.23 132.963 292.23C110.402 292.23 105.273 274.695 105.273 274.695C99.9336 260.823 92.2391 257.107 92.2391 257.107C82.032 249.936 92.1867 249.727 92.9719 249.727H93.0242C104.802 250.773 110.978 262.184 110.978 262.184C116.841 272.444 124.692 275.323 131.706 275.323C137.202 275.323 142.175 273.543 145.106 272.182C146.153 264.435 149.189 259.148 152.539 256.113C126.524 253.077 99.1484 242.765 99.1484 196.702C99.1484 183.564 103.702 172.834 111.188 164.459C109.984 161.423 105.953 149.174 112.339 132.634C112.339 132.634 113.177 132.372 114.956 132.372C119.196 132.372 128.775 133.995 144.583 144.987C153.952 142.317 163.95 141.009 173.948 140.956C183.893 141.009 193.943 142.317 203.312 144.987C219.12 133.995 228.699 132.372 232.939 132.372C234.719 132.372 235.556 132.634 235.556 132.634C241.942 149.174 237.912 161.423 236.708 164.459C244.193 172.886 248.747 183.616 248.747 196.702C248.747 242.87 221.319 253.024 195.199 256.008C199.387 259.724 203.155 267.052 203.155 278.254C203.155 294.323 202.998 307.305 202.998 311.23C202.998 314.057 204.621 317.25 208.966 317.25C209.594 317.25 210.327 317.198 211.059 317.041C257.698 301.128 291.25 256.06 291.25 202.984C291.25 136.612 238.749 82.75 174 82.75Z" fill="#79C9B8"/>
<path d="M488.089 171.942L440.573 164.991L419.34 121.809C417.431 117.951 413.708 116 409.984 116C406.284 116 402.586 117.924 400.671 121.809L379.431 164.988L331.912 171.932C323.391 173.171 319.976 183.703 326.154 189.738L360.528 223.333L352.393 270.785C351.237 277.563 356.623 283 362.654 283C364.255 283 365.9 282.618 367.481 281.777L409.991 259.375L452.497 281.783C454.075 282.615 455.717 282.993 457.311 282.993C463.349 282.993 468.744 277.576 467.589 270.795L459.463 223.34L493.844 189.751C500.025 183.717 496.61 173.181 488.089 171.942ZM448.569 212.126L442.687 217.873L444.076 225.988L450.413 262.993L417.259 245.513L409.994 241.684L410.004 138.225L426.569 171.916L430.198 179.297L438.317 180.484L475.399 185.908L448.569 212.126Z" fill="#79C9B8"/>
<path d="M544.922 322.312C545.065 321.644 545.011 320.947 544.764 320.309C544.518 319.671 544.091 319.12 543.536 318.722L494.538 283.659C493.986 283.262 493.331 283.034 492.653 283.004C491.974 282.973 491.302 283.141 490.717 283.487C490.133 283.834 489.661 284.343 489.361 284.953C489.06 285.563 488.944 286.248 489.025 286.923L496.025 346.53C496.106 347.214 496.385 347.858 496.829 348.383C497.272 348.909 497.86 349.292 498.52 349.485C499.179 349.677 499.88 349.672 500.536 349.468C501.193 349.264 501.774 348.872 502.209 348.339L514.851 332.856L526.67 352L532.623 348.311L520.874 329.279L542.185 325.009C542.854 324.877 543.471 324.552 543.957 324.072C544.444 323.593 544.779 322.981 544.922 322.312ZM514.564 323.399C513.769 323.558 513.054 323.988 512.541 324.616L502.013 337.509L496.9 293.971L532.889 319.725L514.564 323.399Z" fill="#79C9B8"/>
</svg>
